<mxfile host="app.diagrams.net" agent="Mozilla/5.0 (Windows NT 10.0; Win64; x64) AppleWebKit/537.36 (KHTML, like Gecko) Chrome/130.0.0.0 Safari/537.36" version="24.8.4" pages="2">
  <diagram name="hubVirtualNetwork" id="V0pvzqXnFK5bAlK4BD1L">
    <mxGraphModel dx="1096" dy="557" grid="1" gridSize="10" guides="1" tooltips="1" connect="1" arrows="1" fold="1" page="1" pageScale="1" pageWidth="850" pageHeight="1100" math="0" shadow="0">
      <root>
        <mxCell id="0" />
        <mxCell id="1" parent="0" />
        <mxCell id="SzBSsbNIgU5acUOj20ld-1" value="" style="rounded=0;whiteSpace=wrap;html=1;fillColor=none;" vertex="1" parent="1">
          <mxGeometry x="320" y="120" width="120" height="120" as="geometry" />
        </mxCell>
        <mxCell id="SzBSsbNIgU5acUOj20ld-2" value="" style="image;aspect=fixed;html=1;points=[];align=center;fontSize=12;image=img/lib/azure2/networking/Virtual_Networks.svg;" vertex="1" parent="1">
          <mxGeometry x="363.25" y="140" width="33.5" height="20" as="geometry" />
        </mxCell>
        <mxCell id="SzBSsbNIgU5acUOj20ld-3" value="HUB Virtual Network" style="text;strokeColor=none;align=center;fillColor=none;html=1;verticalAlign=middle;whiteSpace=wrap;rounded=0;" vertex="1" parent="1">
          <mxGeometry x="350" y="180" width="60" height="30" as="geometry" />
        </mxCell>
        <mxCell id="SzBSsbNIgU5acUOj20ld-4" value="" style="rounded=0;whiteSpace=wrap;html=1;fillColor=none;" vertex="1" parent="1">
          <mxGeometry x="120" y="320" width="120" height="120" as="geometry" />
        </mxCell>
        <mxCell id="SzBSsbNIgU5acUOj20ld-5" value="" style="image;aspect=fixed;html=1;points=[];align=center;fontSize=12;image=img/lib/azure2/networking/Virtual_Networks.svg;" vertex="1" parent="1">
          <mxGeometry x="163.25" y="340" width="33.5" height="20" as="geometry" />
        </mxCell>
        <mxCell id="SzBSsbNIgU5acUOj20ld-6" value="Spoke Virtual Network" style="text;strokeColor=none;align=center;fillColor=none;html=1;verticalAlign=middle;whiteSpace=wrap;rounded=0;" vertex="1" parent="1">
          <mxGeometry x="150" y="380" width="60" height="30" as="geometry" />
        </mxCell>
        <mxCell id="SzBSsbNIgU5acUOj20ld-19" value="" style="endArrow=none;dashed=1;html=1;rounded=0;exitX=0.5;exitY=0;exitDx=0;exitDy=0;strokeColor=#2BAAFF;strokeWidth=2;" edge="1" parent="1" source="SzBSsbNIgU5acUOj20ld-4">
          <mxGeometry width="50" height="50" relative="1" as="geometry">
            <mxPoint x="313.25" y="290" as="sourcePoint" />
            <mxPoint x="363.25" y="240" as="targetPoint" />
          </mxGeometry>
        </mxCell>
        <mxCell id="SzBSsbNIgU5acUOj20ld-20" value="" style="endArrow=none;dashed=1;html=1;rounded=0;exitX=0.5;exitY=0;exitDx=0;exitDy=0;strokeColor=#2BAAFF;strokeWidth=2;" edge="1" parent="1" source="SzBSsbNIgU5acUOj20ld-26">
          <mxGeometry width="50" height="50" relative="1" as="geometry">
            <mxPoint x="560" y="320" as="sourcePoint" />
            <mxPoint x="403.25" y="240" as="targetPoint" />
          </mxGeometry>
        </mxCell>
        <mxCell id="SzBSsbNIgU5acUOj20ld-22" value="" style="endArrow=none;dashed=1;html=1;rounded=0;strokeColor=#2BAAFF;strokeWidth=2;" edge="1" parent="1">
          <mxGeometry width="50" height="50" relative="1" as="geometry">
            <mxPoint x="380" y="320" as="sourcePoint" />
            <mxPoint x="380" y="240" as="targetPoint" />
          </mxGeometry>
        </mxCell>
        <mxCell id="SzBSsbNIgU5acUOj20ld-23" value="" style="rounded=0;whiteSpace=wrap;html=1;fillColor=none;" vertex="1" parent="1">
          <mxGeometry x="320" y="320" width="120" height="120" as="geometry" />
        </mxCell>
        <mxCell id="SzBSsbNIgU5acUOj20ld-24" value="" style="image;aspect=fixed;html=1;points=[];align=center;fontSize=12;image=img/lib/azure2/networking/Virtual_Networks.svg;" vertex="1" parent="1">
          <mxGeometry x="363.25" y="340" width="33.5" height="20" as="geometry" />
        </mxCell>
        <mxCell id="SzBSsbNIgU5acUOj20ld-25" value="Spoke Virtual Network" style="text;strokeColor=none;align=center;fillColor=none;html=1;verticalAlign=middle;whiteSpace=wrap;rounded=0;" vertex="1" parent="1">
          <mxGeometry x="350" y="380" width="60" height="30" as="geometry" />
        </mxCell>
        <mxCell id="SzBSsbNIgU5acUOj20ld-26" value="" style="rounded=0;whiteSpace=wrap;html=1;fillColor=none;" vertex="1" parent="1">
          <mxGeometry x="520" y="320" width="120" height="120" as="geometry" />
        </mxCell>
        <mxCell id="SzBSsbNIgU5acUOj20ld-27" value="" style="image;aspect=fixed;html=1;points=[];align=center;fontSize=12;image=img/lib/azure2/networking/Virtual_Networks.svg;" vertex="1" parent="1">
          <mxGeometry x="563.25" y="340" width="33.5" height="20" as="geometry" />
        </mxCell>
        <mxCell id="SzBSsbNIgU5acUOj20ld-28" value="Spoke Virtual Network" style="text;strokeColor=none;align=center;fillColor=none;html=1;verticalAlign=middle;whiteSpace=wrap;rounded=0;" vertex="1" parent="1">
          <mxGeometry x="550" y="380" width="60" height="30" as="geometry" />
        </mxCell>
        <mxCell id="8IHM02-2g00QuZxhu5uI-1" value="" style="image;aspect=fixed;html=1;points=[];align=center;fontSize=12;image=img/lib/azure2/networking/Route_Tables.svg;" vertex="1" parent="1">
          <mxGeometry x="617.29" y="320" width="22.71" height="22" as="geometry" />
        </mxCell>
        <mxCell id="8IHM02-2g00QuZxhu5uI-3" value="" style="image;aspect=fixed;html=1;points=[];align=center;fontSize=12;image=img/lib/azure2/networking/Route_Tables.svg;" vertex="1" parent="1">
          <mxGeometry x="417.28999999999996" y="320" width="22.71" height="22" as="geometry" />
        </mxCell>
        <mxCell id="8IHM02-2g00QuZxhu5uI-4" value="" style="image;aspect=fixed;html=1;points=[];align=center;fontSize=12;image=img/lib/azure2/networking/Route_Tables.svg;" vertex="1" parent="1">
          <mxGeometry x="217.28999999999996" y="320" width="22.71" height="22" as="geometry" />
        </mxCell>
        <mxCell id="uGsSKMIzzHrUvdlmyy55-3" value="Peering" style="text;strokeColor=none;align=center;fillColor=#b1ddf0;html=1;verticalAlign=middle;whiteSpace=wrap;rounded=0;rotation=90;strokeOpacity=50;fillOpacity=50;" vertex="1" parent="1">
          <mxGeometry x="367.29" y="275" width="50" height="10" as="geometry" />
        </mxCell>
        <mxCell id="uGsSKMIzzHrUvdlmyy55-12" value="Peering" style="text;strokeColor=none;align=center;fillColor=#b1ddf0;html=1;verticalAlign=middle;whiteSpace=wrap;rounded=0;rotation=-25;strokeOpacity=50;fillOpacity=50;" vertex="1" parent="1">
          <mxGeometry x="230.00000000000003" y="270" width="50" height="10" as="geometry" />
        </mxCell>
        <mxCell id="uGsSKMIzzHrUvdlmyy55-13" value="Peering" style="text;strokeColor=none;align=center;fillColor=#b1ddf0;html=1;verticalAlign=middle;whiteSpace=wrap;rounded=0;rotation=25;strokeOpacity=50;fillOpacity=50;" vertex="1" parent="1">
          <mxGeometry x="470" y="265" width="50" height="10" as="geometry" />
        </mxCell>
      </root>
    </mxGraphModel>
  </diagram>
  <diagram id="VdQ6MAHld9TvuAuTd4kw" name="virtualWan">
    <mxGraphModel dx="1096" dy="557" grid="1" gridSize="10" guides="1" tooltips="1" connect="1" arrows="1" fold="1" page="1" pageScale="1" pageWidth="850" pageHeight="1100" math="0" shadow="0">
      <root>
        <mxCell id="0" />
        <mxCell id="1" parent="0" />
        <mxCell id="J2kcwH8CixweF59pTDtv-19" value="" style="rounded=0;whiteSpace=wrap;html=1;fillColor=none;" vertex="1" parent="1">
          <mxGeometry x="160" y="80" width="440" height="200" as="geometry" />
        </mxCell>
        <mxCell id="J2kcwH8CixweF59pTDtv-1" value="" style="rounded=0;whiteSpace=wrap;html=1;fillColor=none;" vertex="1" parent="1">
          <mxGeometry x="320" y="120" width="120" height="120" as="geometry" />
        </mxCell>
        <mxCell id="J2kcwH8CixweF59pTDtv-3" value="Virtual HUB Virtual Network" style="text;strokeColor=none;align=center;fillColor=none;html=1;verticalAlign=middle;whiteSpace=wrap;rounded=0;" vertex="1" parent="1">
          <mxGeometry x="350" y="180" width="70" height="30" as="geometry" />
        </mxCell>
        <mxCell id="J2kcwH8CixweF59pTDtv-4" value="" style="rounded=0;whiteSpace=wrap;html=1;fillColor=none;" vertex="1" parent="1">
          <mxGeometry x="120" y="320" width="120" height="120" as="geometry" />
        </mxCell>
        <mxCell id="J2kcwH8CixweF59pTDtv-5" value="" style="image;aspect=fixed;html=1;points=[];align=center;fontSize=12;image=img/lib/azure2/networking/Virtual_Networks.svg;" vertex="1" parent="1">
          <mxGeometry x="163.25" y="340" width="33.5" height="20" as="geometry" />
        </mxCell>
        <mxCell id="J2kcwH8CixweF59pTDtv-6" value="Spoke Virtual Network" style="text;strokeColor=none;align=center;fillColor=none;html=1;verticalAlign=middle;whiteSpace=wrap;rounded=0;" vertex="1" parent="1">
          <mxGeometry x="150" y="380" width="60" height="30" as="geometry" />
        </mxCell>
        <mxCell id="J2kcwH8CixweF59pTDtv-7" value="" style="endArrow=none;dashed=1;html=1;rounded=0;exitX=0.5;exitY=0;exitDx=0;exitDy=0;strokeColor=#2BAAFF;strokeWidth=2;" edge="1" parent="1" source="J2kcwH8CixweF59pTDtv-4">
          <mxGeometry width="50" height="50" relative="1" as="geometry">
            <mxPoint x="313.25" y="290" as="sourcePoint" />
            <mxPoint x="363.25" y="240" as="targetPoint" />
          </mxGeometry>
        </mxCell>
        <mxCell id="J2kcwH8CixweF59pTDtv-8" value="" style="endArrow=none;dashed=1;html=1;rounded=0;exitX=0.5;exitY=0;exitDx=0;exitDy=0;strokeColor=#2BAAFF;strokeWidth=2;" edge="1" parent="1" source="J2kcwH8CixweF59pTDtv-13">
          <mxGeometry width="50" height="50" relative="1" as="geometry">
            <mxPoint x="560" y="320" as="sourcePoint" />
            <mxPoint x="403.25" y="240" as="targetPoint" />
          </mxGeometry>
        </mxCell>
        <mxCell id="J2kcwH8CixweF59pTDtv-9" value="" style="endArrow=none;dashed=1;html=1;rounded=0;strokeColor=#2BAAFF;strokeWidth=2;" edge="1" parent="1">
          <mxGeometry width="50" height="50" relative="1" as="geometry">
            <mxPoint x="380" y="320" as="sourcePoint" />
            <mxPoint x="380" y="240" as="targetPoint" />
          </mxGeometry>
        </mxCell>
        <mxCell id="J2kcwH8CixweF59pTDtv-10" value="" style="rounded=0;whiteSpace=wrap;html=1;fillColor=none;" vertex="1" parent="1">
          <mxGeometry x="320" y="320" width="120" height="120" as="geometry" />
        </mxCell>
        <mxCell id="J2kcwH8CixweF59pTDtv-11" value="" style="image;aspect=fixed;html=1;points=[];align=center;fontSize=12;image=img/lib/azure2/networking/Virtual_Networks.svg;" vertex="1" parent="1">
          <mxGeometry x="363.25" y="340" width="33.5" height="20" as="geometry" />
        </mxCell>
        <mxCell id="J2kcwH8CixweF59pTDtv-12" value="Spoke Virtual Network" style="text;strokeColor=none;align=center;fillColor=none;html=1;verticalAlign=middle;whiteSpace=wrap;rounded=0;" vertex="1" parent="1">
          <mxGeometry x="350" y="380" width="60" height="30" as="geometry" />
        </mxCell>
        <mxCell id="J2kcwH8CixweF59pTDtv-13" value="" style="rounded=0;whiteSpace=wrap;html=1;fillColor=none;" vertex="1" parent="1">
          <mxGeometry x="520" y="320" width="120" height="120" as="geometry" />
        </mxCell>
        <mxCell id="J2kcwH8CixweF59pTDtv-14" value="" style="image;aspect=fixed;html=1;points=[];align=center;fontSize=12;image=img/lib/azure2/networking/Virtual_Networks.svg;" vertex="1" parent="1">
          <mxGeometry x="563.25" y="340" width="33.5" height="20" as="geometry" />
        </mxCell>
        <mxCell id="J2kcwH8CixweF59pTDtv-15" value="Spoke Virtual Network" style="text;strokeColor=none;align=center;fillColor=none;html=1;verticalAlign=middle;whiteSpace=wrap;rounded=0;" vertex="1" parent="1">
          <mxGeometry x="550" y="380" width="60" height="30" as="geometry" />
        </mxCell>
        <mxCell id="J2kcwH8CixweF59pTDtv-20" value="" style="image;aspect=fixed;html=1;points=[];align=center;fontSize=12;image=img/lib/azure2/networking/Virtual_WAN_Hub.svg;" vertex="1" parent="1">
          <mxGeometry x="362.66" y="130" width="44.69" height="44" as="geometry" />
        </mxCell>
        <mxCell id="J2kcwH8CixweF59pTDtv-21" value="" style="image;sketch=0;aspect=fixed;html=1;points=[];align=center;fontSize=12;image=img/lib/mscae/Virtual_WANs.svg;" vertex="1" parent="1">
          <mxGeometry x="163.25" y="90" width="30" height="30" as="geometry" />
        </mxCell>
        <mxCell id="uteuDtSdrgiuANafOd_D-1" value="Peering" style="text;strokeColor=none;align=center;fillColor=#b1ddf0;html=1;verticalAlign=middle;whiteSpace=wrap;rounded=0;rotation=90;strokeOpacity=50;fillOpacity=50;" vertex="1" parent="1">
          <mxGeometry x="370" y="280" width="50" height="10" as="geometry" />
        </mxCell>
        <mxCell id="5v43Gs_0v2Q4gBFCpiPW-2" value="Peering" style="text;strokeColor=none;align=center;fillColor=#b1ddf0;html=1;verticalAlign=middle;whiteSpace=wrap;rounded=0;rotation=25;strokeOpacity=50;fillOpacity=50;" vertex="1" parent="1">
          <mxGeometry x="480" y="270" width="50" height="10" as="geometry" />
        </mxCell>
        <mxCell id="5v43Gs_0v2Q4gBFCpiPW-5" value="Peering" style="text;strokeColor=none;align=center;fillColor=#b1ddf0;html=1;verticalAlign=middle;whiteSpace=wrap;rounded=0;rotation=-25;strokeOpacity=50;fillOpacity=50;" vertex="1" parent="1">
          <mxGeometry x="230.00000000000003" y="270" width="50" height="10" as="geometry" />
        </mxCell>
      </root>
    </mxGraphModel>
  </diagram>
</mxfile>
